<svg width="24" height="24" viewBox="0 0 24 24" fill="none" xmlns="http://www.w3.org/2000/svg">
<path d="M18.5 17.5L21 20M4 5H20M4 11H8M4 17H8M11 14C11 15.0609 11.4214 16.0783 12.1716 16.8284C12.9217 17.5786 13.9391 18 15 18C16.0609 18 17.0783 17.5786 17.8284 16.8284C18.5786 16.0783 19 15.0609 19 14C19 12.9391 18.5786 11.9217 17.8284 11.1716C17.0783 10.4214 16.0609 10 15 10C13.9391 10 12.9217 10.4214 12.1716 11.1716C11.4214 11.9217 11 12.9391 11 14Z" stroke="#303A42" stroke-width="1.5" stroke-linecap="round" stroke-linejoin="round"/>
</svg>
