<svg width="24" height="24" viewBox="0 0 24 24" fill="none" xmlns="http://www.w3.org/2000/svg">
<g clip-path="url(#clip0_115_85)">
<path fill-rule="evenodd" clip-rule="evenodd" d="M11.9732 3C7.01125 3 3 7.04082 3 12.0399C3 16.0359 5.57014 19.4184 9.13561 20.6156C9.58139 20.7056 9.74467 20.4211 9.74467 20.1817C9.74467 19.9722 9.72998 19.2538 9.72998 18.5053C7.23386 19.0442 6.71406 17.4277 6.71406 17.4277C6.31292 16.3801 5.71855 16.1108 5.71855 16.1108C4.90157 15.557 5.77806 15.557 5.77806 15.557C6.68431 15.6169 7.15984 16.4849 7.15984 16.4849C7.96194 17.8618 9.25445 17.4727 9.77443 17.2332C9.84863 16.6495 10.0865 16.2454 10.339 16.021C8.3482 15.8114 6.25359 15.0332 6.25359 11.5608C6.25359 10.573 6.60992 9.76488 7.17453 9.13635C7.08545 8.9119 6.77339 7.9838 7.2638 6.74161C7.2638 6.74161 8.02145 6.5021 9.7298 7.66953C10.4612 7.47165 11.2155 7.37099 11.9732 7.37014C12.7308 7.37014 13.5032 7.47502 14.2164 7.66953C15.9249 6.5021 16.6826 6.74161 16.6826 6.74161C17.173 7.9838 16.8607 8.9119 16.7717 9.13635C17.3511 9.76488 17.6928 10.573 17.6928 11.5608C17.6928 15.0332 15.5982 15.7963 13.5924 16.021C13.9194 16.3053 14.2015 16.844 14.2015 17.6972C14.2015 18.9094 14.1868 19.8823 14.1868 20.1815C14.1868 20.4211 14.3503 20.7056 14.7959 20.6158C18.3613 19.4182 20.9315 16.0359 20.9315 12.0399C20.9462 7.04082 16.9202 3 11.9732 3Z" fill="#24292F"/>
</g>
<defs>
<clipPath id="clip0_115_85">
<rect width="18" height="17.6327" fill="white" transform="translate(3 3)"/>
</clipPath>
</defs>
</svg>
