<svg width="24" height="24" viewBox="0 0 24 24" fill="none" xmlns="http://www.w3.org/2000/svg">
<path d="M14.75 12H16.75C16.9063 12 17.0625 11.875 17.0625 11.6875C17.0625 11.6562 17.0625 11.5938 17.0312 11.5625L13.5937 2.1875C13.5312 2.09375 13.4375 2 13.3125 2H11.3125C11.1562 2 11 2.125 11 2.3125C11 2.34375 11 2.375 11.0313 2.40625L14.5 11.8438C14.5313 11.9375 14.625 12 14.75 12Z" fill="#0073FF"/>
<path d="M14.4063 22H16.4062C16.5625 22 16.7187 21.875 16.7187 21.6875C16.7187 21.6562 16.7188 21.625 16.6875 21.5938L9.5625 2.1875C9.53125 2.09375 9.40625 2 9.28125 2H7.28125C7.125 2 6.96875 2.125 6.96875 2.3125C6.96875 2.34375 6.96875 2.375 7 2.40625L14.125 21.8125C14.1562 21.9375 14.2813 22 14.4063 22Z" fill="#0073FF"/>
<path d="M10.4375 22H12.4375C12.5938 22 12.7188 21.875 12.75 21.7187C12.75 21.6875 12.75 21.625 12.7187 21.5938L9.25 12.1875C9.21875 12.0625 9.09375 12 8.96875 12H6.9375C6.78125 12 6.65625 12.1562 6.65625 12.3125C6.65625 12.3438 6.65625 12.375 6.6875 12.4062L10.125 21.8125C10.2188 21.9375 10.3125 22 10.4375 22Z" fill="#0073FF"/>
<path d="M15 2.40625L16.625 6.8125C16.6562 6.9375 16.7813 7 16.9063 7H18.875C19.0312 7 19.1875 6.875 19.1875 6.6875C19.1875 6.65625 19.1875 6.625 19.1563 6.59375L17.5313 2.1875C17.5 2.09375 17.4063 2 17.2813 2H15.2812C15.125 2 14.9688 2.125 14.9688 2.3125C14.9688 2.34375 14.9687 2.375 15 2.40625Z" fill="#0073FF"/>
<path d="M6.75 22H8.75C8.90625 22 9.0625 21.875 9.0625 21.6875C9.0625 21.6562 9.0625 21.625 9.03125 21.5938L7.40625 17.1875C7.375 17.0625 7.25 17 7.125 17H5.125C4.96875 17 4.8125 17.125 4.8125 17.3125C4.8125 17.3438 4.8125 17.375 4.84375 17.4062L6.46875 21.8125C6.5 21.9375 6.625 22 6.75 22Z" fill="#0073FF"/>
</svg>
