<svg width="24" height="24" viewBox="0 0 24 24" fill="none" xmlns="http://www.w3.org/2000/svg">
<path d="M18.4685 16.7523L14.6595 14.5519C14.1243 14.2438 13.44 14.427 13.1303 14.9621C13.0103 15.1729 12.9633 15.4048 12.986 15.6302V19.9306C12.986 20.5452 13.4854 21.0446 14.1016 21.0446C14.7162 21.0446 15.2157 20.5452 15.2157 19.9306V17.4577L17.3496 18.6901C17.8847 18.9998 18.5707 18.815 18.8788 18.2798C19.1885 17.7447 19.0053 17.0604 18.4685 16.7523Z" fill="#29B5E8"/>
<path d="M8.99577 12.0371C9.00226 11.6398 8.79307 11.2701 8.4493 11.0706L4.64024 8.87177C4.47484 8.7761 4.28512 8.72583 4.0954 8.72583C3.7046 8.72583 3.34137 8.93501 3.14678 9.2723C2.84517 9.79444 3.02517 10.4641 3.54731 10.7658L5.74291 12.0322L3.54731 13.3003C3.29434 13.4462 3.11273 13.6813 3.03814 13.9635C2.96192 14.2456 3.00084 14.5408 3.14678 14.7937C3.34137 15.131 3.7046 15.3402 4.09378 15.3402C4.28512 15.3402 4.47484 15.2899 4.64024 15.1943L8.4493 12.9954C8.78983 12.7976 8.99901 12.4311 8.99577 12.0371Z" fill="#29B5E8"/>
<path d="M5.50482 7.31336L9.31388 9.51221C9.75819 9.77004 10.3063 9.68572 10.6565 9.34356C10.8787 9.13925 11.0165 8.84737 11.0165 8.52305V4.11564C11.0165 3.49944 10.5171 3 9.90251 3C9.28631 3 8.78687 3.49944 8.78687 4.11564V6.6242L6.6237 5.37559C6.08859 5.06587 5.40429 5.24911 5.09457 5.78423C4.78485 6.31934 4.96971 7.00365 5.50482 7.31336Z" fill="#29B5E8"/>
<path d="M14.0698 12.2154C14.0698 12.2998 14.0212 12.4165 13.9612 12.4781L12.4515 13.9878C12.3915 14.0478 12.2731 14.0965 12.1888 14.0965H11.8045C11.7202 14.0965 11.6018 14.0478 11.5418 13.9878L10.0305 12.4781C9.97052 12.4165 9.92188 12.2998 9.92188 12.2154V11.8311C9.92188 11.7452 9.97052 11.6284 10.0305 11.5684L11.5418 10.0571C11.6018 9.99713 11.7202 9.94849 11.8045 9.94849H12.1888C12.2731 9.94849 12.3915 9.99713 12.4515 10.0571L13.9612 11.5684C14.0212 11.6284 14.0698 11.7452 14.0698 11.8311V12.2154ZM12.7223 12.0306V12.0144C12.7223 11.9527 12.6866 11.8668 12.6429 11.8214L12.1969 11.3771C12.1531 11.3317 12.0672 11.296 12.004 11.296H11.9877C11.9261 11.296 11.8402 11.3317 11.7948 11.3771L11.3505 11.8214C11.3067 11.8652 11.271 11.9511 11.271 12.0144V12.0306C11.271 12.0938 11.3067 12.1798 11.3505 12.2235L11.7948 12.6695C11.8402 12.7133 11.9261 12.7489 11.9877 12.7489H12.004C12.0672 12.7489 12.1531 12.7133 12.1969 12.6695L12.6429 12.2235C12.6866 12.1798 12.7223 12.0938 12.7223 12.0306Z" fill="#29B5E8"/>
<path d="M14.66 9.51221L18.469 7.31336C19.0042 7.00527 19.189 6.31935 18.8793 5.78423C18.5696 5.24911 17.8853 5.06587 17.3502 5.37559L15.2162 6.60798V4.11564C15.2162 3.49944 14.7167 3 14.1022 3C13.486 3 12.9865 3.49944 12.9865 4.11564V8.43549C12.9654 8.65926 13.0092 8.89277 13.1308 9.10357C13.4406 9.63869 14.1249 9.82193 14.66 9.51221Z" fill="#29B5E8"/>
<path d="M10.0776 14.4223C9.82467 14.3737 9.55387 14.4142 9.31388 14.5521L5.50482 16.7525C4.96971 17.0606 4.78485 17.7449 5.09457 18.28C5.40429 18.8168 6.08859 19 6.6237 18.6903L8.78687 17.4417V19.9308C8.78687 20.5454 9.28631 21.0448 9.90251 21.0448C10.5171 21.0448 11.0165 20.5454 11.0165 19.9308V15.5234C11.0165 14.9672 10.6095 14.5066 10.0776 14.4223Z" fill="#29B5E8"/>
<path d="M20.8499 9.25933C20.5418 8.72259 19.8559 8.53935 19.3208 8.84907L15.5117 11.0479C15.1469 11.2587 14.9458 11.6447 14.9523 12.0371C14.9491 12.4279 15.1501 12.8089 15.5117 13.0165L19.3208 15.217C19.8559 15.5251 20.5402 15.3418 20.8499 14.8067C21.1597 14.2716 20.9748 13.5873 20.4397 13.2776L18.283 12.0322L20.4397 10.7868C20.9764 10.4787 21.1597 9.79444 20.8499 9.25933Z" fill="#29B5E8"/>
</svg>
