<svg width="24" height="24" viewBox="0 0 24 24" fill="none" xmlns="http://www.w3.org/2000/svg">
<path d="M13.2318 7.76855H13.2197V11.4759H13.2318C14.0033 11.4759 14.7432 11.7824 15.2888 12.3279C15.8343 12.8735 16.1408 13.6134 16.1408 14.3849C16.1408 15.1564 15.8343 15.8963 15.2888 16.4418C14.7432 16.9874 14.0033 17.2939 13.2318 17.2939H13.2197V20.9999H13.2318C14.1005 20.9999 14.9607 20.8288 15.7632 20.4963C16.5658 20.1639 17.295 19.6766 17.9093 19.0624C18.5236 18.4481 19.0108 17.7189 19.3432 16.9163C19.6757 16.1138 19.8468 15.2536 19.8468 14.3849C19.8468 13.5162 19.6757 12.656 19.3432 11.8534C19.0108 11.0509 18.5236 10.3216 17.9093 9.70738C17.295 9.09312 16.5658 8.60587 15.7632 8.27343C14.9607 7.941 14.1005 7.7699 13.2318 7.7699V7.76855Z" fill="#212322"/>
<path d="M11.615 16.23H11.6271V12.5266H11.615C10.8435 12.5266 10.1036 12.2202 9.55802 11.6746C9.01248 11.1291 8.706 10.3892 8.706 9.61767C8.706 8.84616 9.01248 8.10624 9.55802 7.5607C10.1036 7.01516 10.8435 6.70868 11.615 6.70868H11.6271V3H11.615C9.86058 3 8.17803 3.69693 6.93748 4.93748C5.69693 6.17803 5 7.86058 5 9.61498C5 11.3694 5.69693 13.0519 6.93748 14.2925C8.17803 15.533 9.86058 16.23 11.615 16.23V16.23Z" fill="#212322"/>
</svg>
