<svg width="24" height="24" viewBox="0 0 24 24" fill="none" xmlns="http://www.w3.org/2000/svg">
<path d="M3.29016 20.9288L11.9087 12.0944C11.9353 12.0681 11.9518 12.0333 11.9553 11.996C11.9589 11.9588 11.9492 11.9215 11.928 11.8907C11.4039 11.159 10.4368 11.0321 10.0784 10.5405C9.01679 9.08412 8.74742 8.25976 8.29122 8.31083C8.25938 8.31541 8.23011 8.33086 8.20836 8.35455L5.09507 11.5461C3.30391 13.3807 3.04648 17.4244 3 20.8107C2.99985 20.8444 3.00977 20.8774 3.02852 20.9054C3.04726 20.9334 3.07397 20.9551 3.10518 20.9678C3.13639 20.9805 3.17068 20.9836 3.20364 20.9766C3.23661 20.9697 3.26675 20.953 3.29016 20.9288Z" fill="#017CEE"/>
<path d="M20.9286 20.7105L12.0942 12.0914C12.0679 12.0647 12.033 12.0482 11.9957 12.0447C11.9584 12.0411 11.9211 12.0509 11.8902 12.0721C11.1585 12.5965 11.0316 13.5633 10.54 13.9217C9.08363 14.9833 8.25929 15.2527 8.31035 15.7089C8.315 15.7406 8.33043 15.7697 8.35406 15.7914L11.5456 18.9047C13.3802 20.6959 17.424 20.9533 20.8103 20.9998C20.8438 20.9998 20.8766 20.9899 20.9044 20.9712C20.9323 20.9525 20.9539 20.9259 20.9666 20.8949C20.9793 20.8639 20.9825 20.8298 20.9757 20.7969C20.9689 20.7641 20.9525 20.734 20.9286 20.7105Z" fill="#00AD46"/>
<path d="M11.5457 18.906C10.5428 17.9276 10.078 15.9921 12 12.001C8.87541 13.3974 7.78045 15.2329 8.3189 15.7585L11.5457 18.906Z" fill="#04D659"/>
<path d="M20.7106 3.07238L12.0924 11.9068C12.0657 11.9331 12.0492 11.9679 12.0456 12.0051C12.0421 12.0424 12.0518 12.0797 12.0731 12.1105C12.5975 12.8421 13.564 12.969 13.9227 13.4607C14.9843 14.917 15.254 15.7413 15.7099 15.6903C15.7417 15.6857 15.771 15.6703 15.7927 15.6466L18.906 12.455C20.6972 10.6205 20.9546 6.57674 21.0011 3.1904C21.0012 3.15671 20.9912 3.12377 20.9724 3.0958C20.9536 3.06783 20.9269 3.04611 20.8957 3.03343C20.8645 3.02075 20.8302 3.01768 20.7972 3.02462C20.7642 3.03156 20.7341 3.04819 20.7106 3.07238Z" fill="#00C7D4"/>
<path d="M18.9073 12.4553C17.9289 13.4582 15.9934 13.923 12.002 12.001C13.3984 15.1255 15.2339 16.2205 15.7595 15.682L18.9073 12.4553Z" fill="#11E1EE"/>
<path d="M3.07137 3.29048L11.9058 11.9087C11.9321 11.9353 11.9669 11.9518 12.0041 11.9554C12.0414 11.9589 12.0786 11.9492 12.1094 11.928C12.8411 11.4036 12.968 10.4368 13.4597 10.0784C14.9161 9.01683 15.7404 8.74744 15.6893 8.29125C15.6847 8.25943 15.6693 8.23018 15.6456 8.20838L12.4541 5.0951C10.6195 3.30393 6.57572 3.04648 3.18939 3C3.15563 2.99979 3.12258 3.0097 3.09451 3.02846C3.06645 3.04722 3.04467 3.07396 3.03196 3.10524C3.01925 3.13652 3.0162 3.17089 3.02322 3.20391C3.03025 3.23693 3.04703 3.26709 3.07137 3.29048Z" fill="#E43921"/>
<path fill-rule="evenodd" clip-rule="evenodd" d="M12.4559 5.09521C13.4588 6.07365 13.9235 8.00914 12.0015 12.0006C15.1261 10.6042 16.2211 8.76834 15.6826 8.24304L12.4559 5.09521Z" fill="#FF7557"/>
<path d="M5.09521 11.5466C6.07366 10.5437 8.00915 10.0789 12.0006 12.001C10.6042 8.87637 8.76867 7.78143 8.24306 8.31988L5.09521 11.5466Z" fill="#0CB6FF"/>
<path d="M12.002 12.3843C12.2147 12.3843 12.3872 12.2118 12.3872 11.999C12.3872 11.7863 12.2147 11.6138 12.002 11.6138C11.7892 11.6138 11.6167 11.7863 11.6167 11.999C11.6167 12.2118 11.7892 12.3843 12.002 12.3843Z" fill="#4A4848"/>
</svg>
