<svg width="24" height="24" viewBox="0 0 24 24" fill="none" xmlns="http://www.w3.org/2000/svg">
<path d="M22.5418 7.05707L15.3114 9.93144L12.5515 11.0316V11.0252C12.4434 11.0761 12.3225 11.1079 12.189 11.1079C12.0109 11.1079 11.8392 11.0507 11.7057 10.9553L9.00302 9.13018L6.6056 7.51494C6.24312 7.26693 5.7789 7.38775 5.58177 7.77566L1.0858 16.4433C0.882309 16.8312 1.05401 17.0156 1.461 16.8566L8.99666 13.8678L11.5149 12.8694C11.6103 12.8312 11.7057 12.8122 11.8138 12.8122C11.9982 12.8122 12.1636 12.8694 12.3035 12.9711L15.3114 14.9997L17.3972 16.4051C17.7597 16.6531 18.2239 16.5323 18.421 16.1444L22.917 7.47042C23.1141 7.08251 22.9488 6.89809 22.5418 7.05707ZM9.61987 12.189L8.99666 12.437L4.27813 14.3129C4.08099 14.3892 3.83934 14.4846 3.76939 14.4147C3.69308 14.3384 3.80119 14.0967 3.90293 13.8996L6.07778 9.70886C6.17953 9.51809 6.32579 9.33367 6.51021 9.2828C6.70099 9.23192 6.92356 9.32731 7.10798 9.44814L9.00302 10.7263L9.75977 11.2414C9.89331 11.3432 10.1668 11.5276 10.1668 11.7057C10.1604 11.9473 9.82336 12.1126 9.61987 12.189ZM15.3114 11.3559L19.731 9.60076C19.7628 9.58804 19.7882 9.58168 19.82 9.57532C20.0045 9.50537 20.2016 9.43542 20.2652 9.49901C20.3351 9.57532 20.2334 9.81697 20.1316 10.0141L17.9568 14.2048C17.855 14.3956 17.7088 14.5864 17.5307 14.6309C17.3908 14.669 17.2382 14.6309 17.0919 14.5546C17.0283 14.5355 16.9711 14.5101 16.9075 14.4719L15.3177 13.3972L14.4656 12.8185C14.4401 12.7931 14.0968 12.5451 14.0777 12.5133C13.9759 12.4242 13.8805 12.3098 13.8805 12.208C13.8805 12.0236 14.0904 11.8774 14.2748 11.7883L15.3114 11.3559Z" fill="#F37121" stroke="#F37121"/>
</svg>
