<svg width="24" height="24" viewBox="0 0 24 24" fill="none" xmlns="http://www.w3.org/2000/svg">
<path fill-rule="evenodd" clip-rule="evenodd" d="M12 3C6.60195 3 2 7.39944 2 12.9022C2 15.8003 3.20111 18.405 5.10055 20.3045C5.79888 21.0028 6.90224 21.0028 7.69833 20.4022C8.80169 19.5014 10.2961 19.0056 12 19.0056C13.6969 19.0056 15.1006 19.5084 16.3017 20.4022C17.1048 21.0028 18.2011 20.905 18.8994 20.1997C20.7989 18.398 22 15.8003 22 12.9022C21.9022 7.49721 17.5028 3 12 3ZM11.9022 18C9.0042 18 6.90223 15.8003 6.90223 13C6.90223 10.1997 8.89945 8 11.9022 8C14.905 8 16.9022 10.2975 16.9022 13C16.9022 15.7025 14.8981 18 11.9022 18Z" fill="#82B6A1"/>
</svg>
