<svg width="24" height="24" viewBox="0 0 24 24" fill="none" xmlns="http://www.w3.org/2000/svg">
<path fill-rule="evenodd" clip-rule="evenodd" d="M17.2887 4.71777L17.3834 6.62804C18.9321 8.33891 19.5434 10.7619 18.7725 13.0391C17.6217 16.4385 13.8271 18.2255 10.297 17.0305C6.76686 15.8354 4.83805 12.1109 5.98882 8.71151C6.76228 6.42669 8.73015 4.8703 11.0093 4.45818L12.2407 3.00327C8.39888 2.89926 4.77436 5.28391 3.47753 9.11471C1.88417 13.8215 4.4081 18.9289 9.11492 20.5223C13.8217 22.1156 18.9291 19.5917 20.5225 14.8849C21.8172 11.0602 20.3933 6.97108 17.2887 4.71777Z" fill="#222222"/>
<path fill-rule="evenodd" clip-rule="evenodd" d="M15.0821 10.3544L15.0169 7.68396L14.9646 6.14729L14.9292 4.81601C14.9292 4.81601 14.9366 4.17406 14.9142 4.02322C14.9095 3.99147 14.8995 3.96562 14.8876 3.94309C14.8862 3.93992 14.8848 3.93675 14.8831 3.93365C14.8815 3.93077 14.8798 3.92811 14.878 3.92541C14.8534 3.88304 14.8147 3.84862 14.7646 3.83166C14.7134 3.81431 14.6604 3.8186 14.6144 3.83847C14.6134 3.83883 14.6125 3.83915 14.6116 3.83955C14.6061 3.842 14.6009 3.84477 14.5956 3.84768C14.5738 3.8583 14.5516 3.87206 14.5299 3.89312C14.4205 3.99932 14.0364 4.51376 14.0364 4.51376L13.1996 5.54977L12.2246 6.73867L10.5507 8.82041C10.5507 8.82041 9.78249 9.77912 9.95223 10.9592C10.122 12.1393 10.9993 12.7142 11.6799 12.9446C12.3605 13.175 13.4066 13.2513 14.2583 12.417C15.1099 11.5826 15.0821 10.3544 15.0821 10.3544Z" fill="#222222"/>
</svg>
