<svg width="24" height="24" viewBox="0 0 24 24" fill="none" xmlns="http://www.w3.org/2000/svg">
<g clip-path="url(#clip0_550_273)">
<path d="M20.2351 3.74864C20.6582 4.15552 20.9349 4.69259 21 5.27848C21 5.5226 20.9349 5.68536 20.7884 5.99458C20.642 6.3038 18.8354 9.42858 18.2984 10.2911C17.9892 10.7957 17.8264 11.3978 17.8264 11.9837C17.8264 12.5859 17.9892 13.1718 18.2984 13.6763C18.8354 14.5389 20.642 17.6799 20.7884 17.9892C20.9349 18.2984 21 18.4448 21 18.689C20.9349 19.2749 20.6745 19.8119 20.2514 20.2025C19.8445 20.6257 19.3074 20.9024 18.7378 20.9512C18.4937 20.9512 18.3309 20.8861 18.038 20.7396C17.745 20.5931 14.5552 18.8354 13.6926 18.2984C13.6275 18.2658 13.5624 18.217 13.481 18.1844L9.217 15.6618C9.31464 16.4756 9.6727 17.2568 10.2586 17.8264C10.3725 17.9403 10.4864 18.038 10.6166 18.1356C10.519 18.1844 10.4051 18.2333 10.3074 18.2984C9.44484 18.8354 6.3038 20.642 5.99458 20.7884C5.68536 20.9349 5.53888 21 5.27848 21C4.69259 20.9349 4.15552 20.6745 3.76492 20.2514C3.34177 19.8445 3.0651 19.3074 3 18.7215C3.01627 18.4774 3.08137 18.2333 3.21157 18.0217C3.35805 17.7125 5.16456 14.5714 5.70162 13.7089C6.01086 13.2043 6.1736 12.6184 6.1736 12.0163C6.1736 11.4141 6.01086 10.8282 5.70162 10.3237C5.16456 9.42858 3.34177 6.28752 3.21157 5.9783C3.08137 5.76672 3.01627 5.5226 3 5.27848C3.0651 4.69259 3.3255 4.15552 3.74864 3.74864C4.15552 3.3255 4.69259 3.0651 5.27848 3C5.5226 3.01627 5.76672 3.08137 5.99458 3.21157C6.25498 3.3255 8.54972 4.66004 9.77034 5.37614L10.047 5.53888C10.1447 5.60398 10.226 5.6528 10.2911 5.68536L10.4213 5.76672L14.7667 8.33816C14.6691 7.36166 14.1646 6.46654 13.3834 5.86438C13.481 5.81556 13.5949 5.76672 13.6926 5.70162C14.5552 5.16456 17.6962 3.34177 18.0054 3.21157C18.217 3.08137 18.4611 3.01627 18.7215 3C19.2911 3.0651 19.8282 3.3255 20.2351 3.74864ZM12.2278 13.1555L13.1555 12.2278C13.2857 12.0976 13.2857 11.9024 13.1555 11.7722L12.2278 10.8445C12.0976 10.7143 11.9024 10.7143 11.7722 10.8445L10.8445 11.7722C10.7143 11.9024 10.7143 12.0976 10.8445 12.2278L11.7722 13.1555C11.8861 13.2694 12.0976 13.2694 12.2278 13.1555Z" fill="#FF694A"/>
</g>
<defs>
<clipPath id="clip0_550_273">
<rect width="18" height="18" fill="white" transform="translate(3 3)"/>
</clipPath>
</defs>
</svg>
