<svg width="24" height="24" viewBox="0 0 24 24" fill="none" xmlns="http://www.w3.org/2000/svg">
<path d="M21.4448 11.6459L12.8433 3.04434L12.0148 2.20001L5.53457 8.67494L2.57414 11.6459C2.42591 11.7943 2.34265 11.9955 2.34265 12.2053C2.34265 12.415 2.42591 12.6162 2.57414 12.7647L8.48971 18.6802L12.0148 22.2L18.4897 15.7251L18.59 15.6248L21.4448 12.7541C21.5899 12.6061 21.6711 12.4072 21.6711 12.2C21.6711 11.9928 21.5899 11.7939 21.4448 11.6459ZM12.0148 15.1499L9.05963 12.1947L12.0148 9.23959L14.9699 12.1947L12.0148 15.1499Z" fill="#0082FF"/>
<path d="M12.0148 9.23958C11.0853 8.31004 10.5615 7.05051 10.5575 5.73602C10.5535 4.42153 11.0699 3.15887 11.9937 2.22375L5.5293 8.68813L9.04908 12.2079L12.0148 9.23958Z" fill="url(#paint0_linear_3_85)"/>
<path d="M14.9726 12.1868L12.0148 15.1499C12.4788 15.6122 12.8469 16.1616 13.0981 16.7665C13.3493 17.3714 13.4786 18.02 13.4786 18.675C13.4786 19.3299 13.3493 19.9785 13.0981 20.5834C12.8469 21.1883 12.4788 21.7377 12.0148 22.2L18.4976 15.7172L14.9726 12.1868Z" fill="url(#paint1_linear_3_85)"/>
<defs>
<linearGradient id="paint0_linear_3_85" x1="11.4818" y1="6.25014" x2="7.35515" y2="10.3768" gradientUnits="userSpaceOnUse">
<stop offset="0.18" stop-color="#0050D3"/>
<stop offset="1" stop-color="#0082FF"/>
</linearGradient>
<linearGradient id="paint1_linear_3_85" x1="12.5741" y1="18.105" x2="16.6929" y2="13.9863" gradientUnits="userSpaceOnUse">
<stop offset="0.18" stop-color="#0050D3"/>
<stop offset="1" stop-color="#0082FF"/>
</linearGradient>
</defs>
</svg>
