<svg width="24" height="24" viewBox="0 0 24 24" fill="none" xmlns="http://www.w3.org/2000/svg">
<path d="M12.5589 11.9829C15.0394 11.9829 17.0503 9.97204 17.0503 7.49147C17.0503 5.0109 15.0394 3 12.5589 3C10.0783 3 8.06738 5.0109 8.06738 7.49147C8.06738 9.97204 10.0783 11.9829 12.5589 11.9829Z" fill="url(#paint0_linear_504_87)"/>
<path d="M12.1759 20.8903C9.24258 19.0191 6.80303 16.469 5.06357 13.4557C4.99634 13.3349 4.98171 13.1918 5.02314 13.0599C5.06456 12.928 5.15839 12.819 5.28261 12.7583L8.68394 11.0891C8.92187 10.9731 9.209 11.0611 9.34104 11.2905C11.0607 14.1727 13.6035 16.4744 16.6422 17.8993C15.5215 19.0285 14.2805 20.0315 12.9413 20.8903C12.7071 21.0365 12.4101 21.0365 12.1759 20.8903Z" fill="url(#paint1_linear_504_87)"/>
<path d="M12.9409 20.8903C15.8746 19.0196 18.3143 16.4694 20.0532 13.4557C20.1206 13.3352 20.1356 13.1924 20.0947 13.0605C20.0538 12.9287 19.9605 12.8194 19.8367 12.7583L16.4329 11.0891C16.1949 10.9731 15.9078 11.0611 15.7758 11.2905C14.0565 14.173 11.5136 16.4748 8.47461 17.8993C9.59462 19.0293 10.8358 20.0323 12.1755 20.8903C12.4097 21.0365 12.7067 21.0365 12.9409 20.8903Z" fill="#2684FF"/>
<defs>
<linearGradient id="paint0_linear_504_87" x1="12.5588" y1="4.49296" x2="12.5588" y2="13.7151" gradientUnits="userSpaceOnUse">
<stop stop-color="#2684FF"/>
<stop offset="0.82" stop-color="#0052CC"/>
</linearGradient>
<linearGradient id="paint1_linear_504_87" x1="9.79422" y1="14.1422" x2="12.2098" y2="19.1978" gradientUnits="userSpaceOnUse">
<stop stop-color="#2684FF"/>
<stop offset="0.62" stop-color="#0052CC"/>
</linearGradient>
</defs>
</svg>
