<svg width="24" height="24" viewBox="0 0 24 24" fill="none" xmlns="http://www.w3.org/2000/svg">
<path d="M19.6838 10.4118L12.2626 14.6187L4.37815 10.1376L4.00945 10.3361V13.5882L12.2721 18.2962L19.6933 14.0893V15.8193L12.2721 20.0263L4.37815 15.5452L4.00945 15.7437V16.292L12.2721 21L20.563 16.292V13.0399L20.1943 12.8414L12.2626 17.3225L4.86975 13.1155V11.4139L12.2626 15.5924L20.5536 10.8845V7.67962L20.1282 7.45273L12.2626 11.9055L5.26681 7.92542L12.2626 3.97374L18.0389 7.22584L18.5588 6.95168V6.55462L12.2626 3L4 7.68908V8.19013L12.2626 12.8981L19.6838 8.69118V10.4118Z" fill="#FF3621"/>
</svg>
