<svg width="24" height="24" viewBox="0 0 24 24" fill="none" xmlns="http://www.w3.org/2000/svg">
<path d="M16.345 9.67432H22.0276C22.5645 9.67432 22.9997 10.1095 22.9997 10.6464V15.8225C22.9997 17.7957 21.4002 19.3952 19.427 19.3952H19.4101C17.437 19.3955 15.8372 17.7962 15.8369 15.823V10.1824C15.8369 9.90178 16.0644 9.67432 16.345 9.67432V9.67432Z" fill="#5059C9"/>
<path d="M20.1851 8.65103C21.4567 8.65103 22.4875 7.62025 22.4875 6.34871C22.4875 5.07717 21.4567 4.04639 20.1851 4.04639C18.9136 4.04639 17.8828 5.07717 17.8828 6.34871C17.8828 7.62025 18.9136 8.65103 20.1851 8.65103Z" fill="#5059C9"/>
<path d="M13.0228 8.65116C14.8595 8.65116 16.3484 7.16225 16.3484 5.32558C16.3484 3.48891 14.8595 2 13.0228 2C11.1862 2 9.69727 3.48891 9.69727 5.32558C9.69727 7.16225 11.1862 8.65116 13.0228 8.65116Z" fill="#7B83EB"/>
<path d="M17.4573 9.67432H8.0771C7.54662 9.68744 7.12698 10.1277 7.13929 10.6582V16.5619C7.06521 19.7453 9.58382 22.3871 12.7672 22.465C15.9506 22.3871 18.4692 19.7453 18.3951 16.5619V10.6582C18.4074 10.1277 17.9878 9.68744 17.4573 9.67432V9.67432Z" fill="#7B83EB"/>
<path opacity="0.1" d="M13.2795 9.67432V17.9473C13.2769 18.3267 13.047 18.6675 12.6962 18.812C12.5845 18.8592 12.4645 18.8836 12.3432 18.8836H7.59015C7.52364 18.7148 7.46225 18.5459 7.41108 18.372C7.23198 17.7849 7.14061 17.1746 7.13991 16.5608V10.6566C7.12761 10.127 7.54656 9.68744 8.07619 9.67432H13.2795Z" fill="black"/>
<path opacity="0.2" d="M12.7678 9.67432V18.459C12.7678 18.5802 12.7435 18.7003 12.6962 18.812C12.5517 19.1628 12.2109 19.3927 11.8315 19.3952H7.83062C7.74364 19.2264 7.66178 19.0576 7.59015 18.8836C7.51852 18.7097 7.46225 18.5459 7.41108 18.372C7.23198 17.7849 7.14061 17.1746 7.13991 16.5608V10.6566C7.12761 10.127 7.54656 9.68744 8.07619 9.67432H12.7678Z" fill="black"/>
<path opacity="0.2" d="M12.7678 9.67432V17.4357C12.7639 17.9512 12.347 18.3681 11.8315 18.372H7.41108C7.23198 17.7849 7.14061 17.1746 7.13991 16.5608V10.6566C7.12761 10.127 7.54656 9.68744 8.07619 9.67432H12.7678Z" fill="black"/>
<path opacity="0.2" d="M12.2562 9.67432V17.4357C12.2523 17.9512 11.8354 18.3681 11.3199 18.372H7.41108C7.23198 17.7849 7.14061 17.1746 7.13991 16.5608V10.6566C7.12761 10.127 7.54656 9.68744 8.07619 9.67432H12.2562Z" fill="black"/>
<path opacity="0.1" d="M13.2784 7.02929V8.64091C13.1914 8.64603 13.1095 8.65115 13.0226 8.65115C12.9356 8.65115 12.8537 8.64603 12.7667 8.64091C12.594 8.62945 12.4228 8.60205 12.2551 8.55906C11.2191 8.3137 10.3631 7.5871 9.95279 6.60464C9.88219 6.43965 9.82737 6.26834 9.78906 6.09302H12.3421C12.8584 6.09497 13.2764 6.513 13.2784 7.02929V7.02929Z" fill="black"/>
<path opacity="0.2" d="M12.7671 7.54076V8.64076C12.5944 8.6293 12.4231 8.6019 12.2554 8.55891C11.2194 8.31355 10.3635 7.58695 9.95312 6.60449H11.8308C12.3471 6.60645 12.7651 7.02449 12.7671 7.54076Z" fill="black"/>
<path opacity="0.2" d="M12.7671 7.54076V8.64076C12.5944 8.6293 12.4231 8.6019 12.2554 8.55891C11.2194 8.31355 10.3635 7.58695 9.95312 6.60449H11.8308C12.3471 6.60645 12.7651 7.02449 12.7671 7.54076Z" fill="black"/>
<path opacity="0.2" d="M12.2554 7.54077V8.55891C11.2194 8.31355 10.3635 7.58695 9.95312 6.60449H11.3192C11.8355 6.60646 12.2535 7.0245 12.2554 7.54077Z" fill="black"/>
<path d="M1.93781 6.60449H11.318C11.8359 6.60449 12.2558 7.02437 12.2558 7.5423V16.9225C12.2558 17.4404 11.8359 17.8603 11.318 17.8603H1.93781C1.41987 17.8603 1 17.4404 1 16.9225V7.5423C1 7.02437 1.41988 6.60449 1.93781 6.60449Z" fill="url(#paint0_linear_504_50)"/>
<path d="M9.09536 10.1746H7.22024V15.2806H6.0256V10.1746H4.15918V9.18408H9.09536V10.1746Z" fill="white"/>
<defs>
<linearGradient id="paint0_linear_504_50" x1="2.95536" y1="5.8717" x2="10.3004" y2="18.5931" gradientUnits="userSpaceOnUse">
<stop stop-color="#5A62C3"/>
<stop offset="0.5" stop-color="#4D55BD"/>
<stop offset="1" stop-color="#3940AB"/>
</linearGradient>
</defs>
</svg>
