<svg width="24" height="24" viewBox="0 0 24 24" fill="none" xmlns="http://www.w3.org/2000/svg">
<path d="M12.7755 1C12.4268 1.00015 12.0847 1.0951 11.7857 1.27469C11.4868 1.45428 11.2423 1.71175 11.0784 2.01957C10.9145 2.32739 10.8373 2.67397 10.8552 3.02225C10.873 3.37053 10.9852 3.7074 11.1798 3.99684L12.0014 3.17636C11.9743 3.09451 11.9606 3.0088 11.9609 2.92257C11.9609 2.76212 12.0084 2.60529 12.0976 2.47188C12.1867 2.33848 12.3134 2.23451 12.4616 2.17311C12.6099 2.11171 12.773 2.09564 12.9303 2.12694C13.0877 2.15825 13.2322 2.23551 13.3457 2.34895C13.4591 2.4624 13.5364 2.60695 13.5677 2.76431C13.599 2.92167 13.5829 3.08477 13.5215 3.233C13.4601 3.38123 13.3561 3.50792 13.2227 3.59706C13.0893 3.6862 12.9325 3.73377 12.7721 3.73377C12.6862 3.73396 12.6009 3.72027 12.5194 3.69321L11.6989 4.51369C11.948 4.68258 12.2331 4.79066 12.5315 4.82925C12.8299 4.86784 13.1332 4.83585 13.417 4.73587C13.7008 4.63588 13.9571 4.47068 14.1654 4.25356C14.3737 4.03645 14.5282 3.77347 14.6163 3.48579C14.7045 3.19811 14.7238 2.89376 14.6729 2.59722C14.622 2.30067 14.5022 2.02022 14.3231 1.77842C14.1441 1.53662 13.9108 1.34022 13.642 1.20502C13.3732 1.06983 13.0764 0.999601 12.7755 1Z" fill="#34A853"/>
<path d="M12.0108 6.60314C12.012 5.95369 11.8017 5.32151 11.4116 4.80226L10.3455 5.86726C10.5076 6.1638 10.5669 6.50571 10.514 6.83951C10.4612 7.17332 10.2992 7.48021 10.0534 7.71218L10.6329 9.12832C11.0554 8.85621 11.4029 8.48247 11.6436 8.04132C11.8843 7.60017 12.0106 7.10569 12.0108 6.60314Z" fill="#FBBC04"/>
<path d="M9.03124 8.1317H9.00342C8.76504 8.13172 8.52994 8.07602 8.3169 7.96906C8.10386 7.86209 7.91876 7.70681 7.77639 7.51561C7.63401 7.32442 7.53829 7.10259 7.49686 6.86783C7.45543 6.63307 7.46945 6.39187 7.53778 6.16349C7.60612 5.9351 7.72688 5.72585 7.89045 5.55243C8.05401 5.379 8.25584 5.24621 8.47984 5.16463C8.70383 5.08306 8.9438 5.05496 9.18058 5.08259C9.41736 5.11022 9.64441 5.19281 9.8436 5.32376L10.8993 4.26803C10.5257 3.96512 10.0848 3.75629 9.61375 3.65908C9.14268 3.56187 8.65516 3.57912 8.19213 3.70938C7.72911 3.83964 7.3041 4.0791 6.9528 4.40767C6.60151 4.73623 6.33419 5.14429 6.17329 5.59758C6.01239 6.05087 5.96261 6.53615 6.02814 7.01267C6.09366 7.48918 6.27258 7.94302 6.54986 8.33605C6.82713 8.72909 7.19468 9.04985 7.62162 9.2714C8.04856 9.49295 8.52243 9.60881 9.00342 9.60926C9.20734 9.60936 9.41076 9.58917 9.61067 9.549L9.03124 8.1317Z" fill="#EA4335"/>
<path d="M12.8161 9.35662C12.1489 9.35594 11.4851 9.45316 10.8461 9.64518L11.6909 11.7091C12.0586 11.618 12.4361 11.5721 12.815 11.5724C13.8796 11.5727 14.9112 11.9421 15.734 12.6177C16.5567 13.2933 17.1198 14.2333 17.3273 15.2775C17.5347 16.3217 17.3737 17.4055 16.8717 18.3443C16.3697 19.2831 15.5577 20.0188 14.574 20.4261C13.5904 20.8334 12.496 20.887 11.4772 20.5778C10.4585 20.2686 9.57847 19.6158 8.98708 18.7305C8.3957 17.8453 8.12954 16.7824 8.23395 15.7229C8.33837 14.6634 8.8069 13.6729 9.55972 12.9201C9.88364 12.5972 10.2534 12.3239 10.6572 12.1089L9.82162 10.0508C8.31717 10.7876 7.13639 12.0521 6.5043 13.6035C5.87221 15.1549 5.83299 16.8845 6.39412 18.463C6.95525 20.0414 8.07751 21.3581 9.54702 22.1624C11.0165 22.9666 12.7306 23.202 14.3625 22.8238C15.9944 22.4456 17.4302 21.4802 18.3961 20.1116C19.3621 18.743 19.7907 17.0668 19.6003 15.4024C19.41 13.7381 18.6139 12.202 17.3638 11.0868C16.1138 9.97164 14.4971 9.35538 12.8219 9.35546L12.8161 9.35662Z" fill="#4285F4"/>
</svg>
