<svg width="24" height="24" viewBox="0 0 24 24" fill="none" xmlns="http://www.w3.org/2000/svg">
<g clip-path="url(#clip0_605_8)">
<path d="M11.5073 15.0007H12.4924V12.3142H14.97V11.3589H12.4924V8.67236H11.5073V11.3589H9.05957V12.3142H11.5073V15.0007Z" fill="#E8762D"/>
<path d="M6.9404 18.8811H7.77622V16.493H9.98518V15.7468H7.77622V13.3289H6.9404V15.7468H4.73145V16.493H6.9404V18.8811Z" fill="#C72037"/>
<path d="M16.2236 10.2543H17.0594V7.86626H19.2982V7.14984H17.0594V4.73193H16.2236V7.14984H14.0146V7.86626H16.2236V10.2543Z" fill="#5B879B"/>
<path d="M11.6566 20.7618H12.373V19.0603H13.8954V18.4334H12.373V16.7319H11.6566V18.4334H10.1641V19.0603H11.6566V20.7618Z" fill="#5C6692"/>
<path d="M6.97025 10.2543H7.74637V7.83641H9.98518V7.14984H7.74637V4.73193H6.97025V7.14984H4.73145V7.83641H6.97025V10.2543Z" fill="#EB9129"/>
<path d="M18.7611 13.8364H19.4775V12.1648H20.9999V11.5081H19.4775V9.83643H18.7611V11.5081H17.2686V12.1648H18.7611V13.8364Z" fill="#5C6692"/>
<path fill-rule="evenodd" clip-rule="evenodd" d="M16.2236 18.8811H17.0594V16.493H19.2982V15.7468H17.0594V13.3289H16.2236V15.7468H14.0146V16.493H16.2236V18.8811Z" fill="#1F457E"/>
<path d="M13.7761 5.14974V4.64228H12.2836V3.00049H11.7463V4.64228H10.2537V5.14974H11.7463V6.79153H12.2836V5.14974H13.7761ZM4.49254 13.7169H5.02985V12.0751H6.52239V11.5677H5.02985V9.95571H4.49254V11.5677H3V12.105L4.49254 12.0751V13.7169Z" fill="#7199A6"/>
</g>
<defs>
<clipPath id="clip0_605_8">
<rect width="18" height="17.7624" fill="white" transform="translate(3 3)"/>
</clipPath>
</defs>
</svg>
