<svg width="24" height="24" viewBox="0 0 24 24" fill="none" xmlns="http://www.w3.org/2000/svg">
<path d="M6.78176 14.3748C6.78176 15.4155 5.9316 16.2656 4.89088 16.2656C3.85016 16.2656 3 15.4155 3 14.3748C3 13.334 3.85016 12.4839 4.89088 12.4839H6.78176V14.3748Z" fill="#E01E5A"/>
<path d="M7.73438 14.3748C7.73438 13.334 8.58454 12.4839 9.62525 12.4839C10.666 12.4839 11.5161 13.334 11.5161 14.3748V19.1093C11.5161 20.15 10.666 21.0002 9.62525 21.0002C8.58454 21.0002 7.73438 20.15 7.73438 19.1093V14.3748Z" fill="#E01E5A"/>
<path d="M9.62525 6.78176C8.58454 6.78176 7.73438 5.9316 7.73438 4.89088C7.73438 3.85016 8.58454 3 9.62525 3C10.666 3 11.5161 3.85016 11.5161 4.89088V6.78176H9.62525Z" fill="#36C5F0"/>
<path d="M9.62541 7.73438C10.6661 7.73438 11.5163 8.58454 11.5163 9.62525C11.5163 10.666 10.6661 11.5161 9.62541 11.5161H4.89088C3.85016 11.5161 3 10.666 3 9.62525C3 8.58454 3.85016 7.73438 4.89088 7.73438H9.62541Z" fill="#36C5F0"/>
<path d="M17.2188 9.62525C17.2188 8.58454 18.0689 7.73438 19.1096 7.73438C20.1503 7.73438 21.0005 8.58454 21.0005 9.62525C21.0005 10.666 20.1503 11.5161 19.1096 11.5161H17.2188V9.62525Z" fill="#2EB67D"/>
<path d="M16.2661 9.62541C16.2661 10.6661 15.416 11.5163 14.3753 11.5163C13.3345 11.5163 12.4844 10.6661 12.4844 9.62541V4.89088C12.4844 3.85016 13.3345 3 14.3753 3C15.416 3 16.2661 3.85016 16.2661 4.89088V9.62541Z" fill="#2EB67D"/>
<path d="M14.3753 17.2178C15.416 17.2178 16.2661 18.0679 16.2661 19.1087C16.2661 20.1494 15.416 20.9995 14.3753 20.9995C13.3345 20.9995 12.4844 20.1494 12.4844 19.1087V17.2178H14.3753Z" fill="#ECB22E"/>
<path d="M14.3753 16.2652C13.3345 16.2652 12.4844 15.415 12.4844 14.3743C12.4844 13.3336 13.3345 12.4834 14.3753 12.4834H19.1098C20.1505 12.4834 21.0007 13.3336 21.0007 14.3743C21.0007 15.415 20.1505 16.2652 19.1098 16.2652H14.3753Z" fill="#ECB22E"/>
</svg>
