<svg width="24" height="24" viewBox="0 0 24 24" fill="none" xmlns="http://www.w3.org/2000/svg">
<path d="M8 9H16M8 13H14M11.012 19.193L8 21V18H6C5.20435 18 4.44129 17.6839 3.87868 17.1213C3.31607 16.5587 3 15.7956 3 15V7C3 6.20435 3.31607 5.44129 3.87868 4.87868C4.44129 4.31607 5.20435 4 6 4H18C18.7956 4 19.5587 4.31607 20.1213 4.87868C20.6839 5.44129 21 6.20435 21 7V13M20 21L22 19L20 17M17 17L15 19L17 21" stroke="#303A42" stroke-width="1.5" stroke-linecap="round" stroke-linejoin="round"/>
</svg>
