<svg width="24" height="24" viewBox="0 0 24 24" fill="none" xmlns="http://www.w3.org/2000/svg">
<path d="M9.99999 3.19998C8.4357 3.56262 6.99691 4.33718 5.83287 5.44332C4.66883 6.54946 3.82194 7.94689 3.38002 9.49066C2.93811 11.0344 2.91728 12.6683 3.31968 14.2229C3.72209 15.7774 4.53308 17.196 5.66854 18.3314C6.804 19.4669 8.22257 20.2779 9.77711 20.6803C11.3316 21.0827 12.9655 21.0619 14.5093 20.62C16.0531 20.178 17.4505 19.3311 18.5567 18.1671C19.6628 17.0031 20.4374 15.5643 20.8 14C20.8 13.7348 20.6946 13.4804 20.5071 13.2929C20.3196 13.1053 20.0652 13 19.8 13H13C12.4696 13 11.9609 12.7893 11.5858 12.4142C11.2107 12.0391 11 11.5304 11 11V3.99998C10.9876 3.88151 10.9517 3.76668 10.8946 3.66215C10.8375 3.55763 10.7601 3.46548 10.6671 3.39107C10.5741 3.31665 10.4672 3.26144 10.3527 3.22864C10.2382 3.19584 10.1183 3.1861 9.99999 3.19998Z" stroke="#303A42" stroke-width="1.5" stroke-linecap="round" stroke-linejoin="round"/>
<path d="M15 3.49998C16.2697 3.94707 17.423 4.67328 18.3748 5.62514C19.3267 6.577 20.0529 7.73026 20.5 8.99998H16C15.7348 8.99998 15.4804 8.89463 15.2929 8.70709C15.1054 8.51955 15 8.2652 15 7.99998V3.49998Z" stroke="#303A42" stroke-width="1.5" stroke-linecap="round" stroke-linejoin="round"/>
</svg>
