<svg width="24" height="24" viewBox="0 0 24 24" fill="none" xmlns="http://www.w3.org/2000/svg">
<path d="M5 16C5.53043 16 6.03914 16.2107 6.41421 16.5858C6.78929 16.9609 7 17.4696 7 18C7 18.5304 6.78929 19.0391 6.41421 19.4142C6.03914 19.7893 5.53043 20 5 20C4.46957 20 3.96086 19.7893 3.58579 19.4142C3.21071 19.0391 3 18.5304 3 18C3 17.4696 3.21071 16.9609 3.58579 16.5858C3.96086 16.2107 4.46957 16 5 16ZM5 16V11C5 9.67392 5.52678 8.40215 6.46447 7.46447C7.40215 6.52678 8.67392 6 10 6H13M19 8C18.4696 8 17.9609 7.78929 17.5858 7.41421C17.2107 7.03914 17 6.53043 17 6C17 5.46957 17.2107 4.96086 17.5858 4.58579C17.9609 4.21071 18.4696 4 19 4C19.5304 4 20.0391 4.21071 20.4142 4.58579C20.7893 4.96086 21 5.46957 21 6C21 6.53043 20.7893 7.03914 20.4142 7.41421C20.0391 7.78929 19.5304 8 19 8ZM19 8V13C19 14.3261 18.4732 15.5979 17.5355 16.5355C16.5979 17.4732 15.3261 18 14 18H11M11 18L14 15M11 18L14 21M13 6L10 3M13 6L10 9" stroke="#303A42" stroke-width="1.5" stroke-linecap="round" stroke-linejoin="round"/>
</svg>
