<svg width="24" height="24" viewBox="0 0 24 24" fill="none" xmlns="http://www.w3.org/2000/svg">
<path d="M17 19L14 17M10 15L7 13M7 11L10 9M14 7L17 5M14 9L17 11M14 15L17 13M5 14C5.53043 14 6.03914 13.7893 6.41421 13.4142C6.78929 13.0391 7 12.5304 7 12C7 11.4696 6.78929 10.9609 6.41421 10.5858C6.03914 10.2107 5.53043 10 5 10C4.46957 10 3.96086 10.2107 3.58579 10.5858C3.21071 10.9609 3 11.4696 3 12C3 12.5304 3.21071 13.0391 3.58579 13.4142C3.96086 13.7893 4.46957 14 5 14ZM12 18C12.5304 18 13.0391 17.7893 13.4142 17.4142C13.7893 17.0391 14 16.5304 14 16C14 15.4696 13.7893 14.9609 13.4142 14.5858C13.0391 14.2107 12.5304 14 12 14C11.4696 14 10.9609 14.2107 10.5858 14.5858C10.2107 14.9609 10 15.4696 10 16C10 16.5304 10.2107 17.0391 10.5858 17.4142C10.9609 17.7893 11.4696 18 12 18ZM19 14C19.5304 14 20.0391 13.7893 20.4142 13.4142C20.7893 13.0391 21 12.5304 21 12C21 11.4696 20.7893 10.9609 20.4142 10.5858C20.0391 10.2107 19.5304 10 19 10C18.4696 10 17.9609 10.2107 17.5858 10.5858C17.2107 10.9609 17 11.4696 17 12C17 12.5304 17.2107 13.0391 17.5858 13.4142C17.9609 13.7893 18.4696 14 19 14ZM19 6C19.5304 6 20.0391 5.78929 20.4142 5.41421C20.7893 5.03914 21 4.53043 21 4C21 3.46957 20.7893 2.96086 20.4142 2.58579C20.0391 2.21071 19.5304 2 19 2C18.4696 2 17.9609 2.21071 17.5858 2.58579C17.2107 2.96086 17 3.46957 17 4C17 4.53043 17.2107 5.03914 17.5858 5.41421C17.9609 5.78929 18.4696 6 19 6ZM19 22C19.5304 22 20.0391 21.7893 20.4142 21.4142C20.7893 21.0391 21 20.5304 21 20C21 19.4696 20.7893 18.9609 20.4142 18.5858C20.0391 18.2107 19.5304 18 19 18C18.4696 18 17.9609 18.2107 17.5858 18.5858C17.2107 18.9609 17 19.4696 17 20C17 20.5304 17.2107 21.0391 17.5858 21.4142C17.9609 21.7893 18.4696 22 19 22ZM12 10C12.5304 10 13.0391 9.78929 13.4142 9.41421C13.7893 9.03914 14 8.53043 14 8C14 7.46957 13.7893 6.96086 13.4142 6.58579C13.0391 6.21071 12.5304 6 12 6C11.4696 6 10.9609 6.21071 10.5858 6.58579C10.2107 6.96086 10 7.46957 10 8C10 8.53043 10.2107 9.03914 10.5858 9.41421C10.9609 9.78929 11.4696 10 12 10Z" stroke="#303A42" stroke-width="1.5" stroke-linecap="round" stroke-linejoin="round"/>
</svg>
